<svg width="90" height="25" viewBox="0 0 90 25" fill="none" xmlns="http://www.w3.org/2000/svg">
<path d="M0.107059 24.1927C0.0479317 24.1927 0 24.1447 0 24.0856V3.72595C0 3.14929 0.467474 2.68182 1.04413 2.68182H8.75799C9.92573 2.68182 10.9808 2.97888 11.9232 3.57298C12.886 4.1466 13.6543 4.93534 14.2279 5.93917C14.8015 6.94301 15.0883 8.05954 15.0883 9.28873C15.0883 10.5179 14.8015 11.6344 14.2279 12.6383C13.6543 13.6421 12.886 14.4513 11.9232 15.0659C10.9808 15.66 9.92573 15.9571 8.75799 15.9571H3.58449C3.43776 15.9571 3.31882 16.076 3.31882 16.2227V20.9809C3.31882 22.7547 1.88087 24.1927 0.107059 24.1927ZM3.31882 11.7171C3.31882 12.2937 3.7863 12.7612 4.36295 12.7612H8.69654C9.24967 12.7612 9.75159 12.6075 10.2023 12.3002C10.653 11.9725 11.0115 11.5525 11.2778 11.0403C11.5647 10.5077 11.708 9.9238 11.708 9.28873C11.708 8.65364 11.5647 8.08002 11.2778 7.56786C11.0115 7.05569 10.653 6.64597 10.2023 6.33867C9.75159 6.03136 9.24967 5.87771 8.69654 5.87771H4.36295C3.7863 5.87771 3.31882 6.34518 3.31882 6.92184V11.7171ZM25.9059 24.5C24.2465 24.5 22.7715 24.1517 21.4809 23.4551C20.2106 22.7382 19.2068 21.765 18.4694 20.5359C17.7523 19.3067 17.3938 17.8931 17.3938 16.2952C17.3938 15.025 17.5986 13.8675 18.0084 12.8226C18.4182 11.7778 18.9815 10.8764 19.6985 10.1184C20.4361 9.33994 21.3067 8.74584 22.3106 8.3361C23.3348 7.90589 24.4412 7.69077 25.6294 7.69077C26.6742 7.69077 27.6474 7.89563 28.5487 8.30537C29.4501 8.69461 30.2286 9.2375 30.8842 9.93405C31.5602 10.6306 32.0724 11.4603 32.4207 12.4232C32.7895 13.3656 32.9636 14.4001 32.9431 15.5269L32.9355 15.8586C32.9227 16.4259 32.4591 16.879 31.8917 16.879H20.5207C20.0527 16.879 19.6418 16.5675 19.5154 16.1169L19.3944 15.6853C19.2076 15.0194 19.7081 14.3591 20.3997 14.3591H29.8598C29.9832 14.3591 30.0489 14.5047 29.9673 14.5973C29.8799 14.6963 29.7165 14.6345 29.7165 14.5025V14.144C29.655 13.468 29.4296 12.8636 29.0404 12.331C28.6512 11.7983 28.1595 11.3783 27.5654 11.071C26.9712 10.7637 26.3259 10.6101 25.6294 10.6101C24.523 10.6101 23.5909 10.8252 22.833 11.2554C22.075 11.6652 21.5013 12.2798 21.1121 13.0992C20.7229 13.8982 20.5282 14.8918 20.5282 16.08C20.5282 17.2068 20.7638 18.1901 21.235 19.03C21.7062 19.8495 22.372 20.4847 23.2324 20.9353C24.0929 21.386 25.0865 21.6114 26.2133 21.6114C27.0122 21.6114 27.7497 21.4782 28.4257 21.2118C29.7674 20.699 31.3937 20.785 32.2271 21.9549C32.25 21.9872 32.2465 22.0314 32.2181 22.0591C31.7355 22.5308 31.1474 22.9448 30.4539 23.3015C29.7574 23.6703 29.0097 23.9674 28.2107 24.1927C27.4322 24.3976 26.6639 24.5 25.9059 24.5ZM38.4824 24.1927C38.426 24.1927 38.3803 24.147 38.3803 24.0906V7.00474C38.3803 5.3131 39.7517 3.94174 41.4433 3.94174C41.4997 3.94174 41.5454 3.98745 41.5454 4.04384V21.1297C41.5454 22.8213 40.1741 24.1927 38.4824 24.1927ZM38.0047 11.1325C36.3623 11.1325 35.0308 9.80107 35.0308 8.15867C35.0308 8.10392 35.0752 8.05954 35.13 8.05954H42.3207C43.9631 8.05954 45.2945 9.39097 45.2945 11.0334C45.2945 11.0881 45.2501 11.1325 45.1954 11.1325H38.0047ZM56.6581 24.5C55.9615 24.5 55.2649 24.3873 54.5684 24.162C53.8923 23.9365 53.2675 23.6395 52.694 23.2708C52.1408 22.8815 51.6696 22.4615 51.2804 22.0109C50.9838 21.6319 50.7667 21.2529 50.6291 20.8739C50.5711 20.714 50.6483 20.5405 50.7981 20.4599L51.1588 20.2656C51.2415 20.2211 51.3419 20.281 51.3419 20.375V21.0374C51.3419 22.7291 49.9705 24.1005 48.2787 24.1005C48.2223 24.1005 48.1766 24.0548 48.1766 23.9984V2.24394C48.1766 1.80691 48.5309 1.45262 48.9679 1.45262C50.279 1.45262 51.3419 2.51547 51.3419 3.82656V11.3531C51.3419 11.5294 51.1521 11.6404 50.9985 11.554C50.9103 11.5044 50.8639 11.4028 50.8913 11.3054C51.0071 10.8938 51.2188 10.4981 51.5261 10.1184C51.8745 9.66773 52.3149 9.26823 52.8475 8.91996C53.4007 8.5512 53.9949 8.2644 54.6299 8.05954C55.2649 7.83418 55.9103 7.72151 56.5658 7.72151C58.0205 7.72151 59.3111 8.08002 60.4379 8.79705C61.5646 9.51408 62.4558 10.5077 63.1114 11.7778C63.767 13.0275 64.0947 14.4616 64.0947 16.08C64.0947 17.6985 63.767 19.1427 63.1114 20.4129C62.4762 21.683 61.5953 22.6868 60.4685 23.4244C59.3418 24.1415 58.0717 24.5 56.6581 24.5ZM56.1357 21.6114C57.0781 21.6114 57.9179 21.3758 58.6555 20.9046C59.3929 20.4129 59.9769 19.7573 60.4071 18.9379C60.8373 18.0979 61.0524 17.1453 61.0524 16.08C61.0524 15.0352 60.8373 14.1031 60.4071 13.2836C59.9973 12.4436 59.4238 11.7881 58.6862 11.3169C57.9487 10.8457 57.0985 10.6101 56.1357 10.6101C55.1728 10.6101 54.3226 10.8457 53.5851 11.3169C52.8476 11.7881 52.2637 12.4436 51.8334 13.2836C51.4033 14.1031 51.1881 15.0352 51.1881 16.08C51.1881 17.1453 51.4033 18.0979 51.8334 18.9379C52.2637 19.7573 52.8476 20.4129 53.5851 20.9046C54.3226 21.3758 55.1728 21.6114 56.1357 21.6114ZM68.1573 24.1927C68.1009 24.1927 68.0552 24.147 68.0552 24.0906V11.1227C68.0552 9.43095 69.4266 8.05954 71.1183 8.05954C71.1747 8.05954 71.2204 8.10525 71.2204 8.16164V21.1295C71.2204 22.8213 69.849 24.1927 68.1573 24.1927ZM69.5916 4.49487C68.9157 4.49487 68.3933 4.32074 68.0245 3.97247C67.6557 3.62419 67.4713 3.13253 67.4713 2.49744C67.4713 1.90332 67.6557 1.42189 68.0245 1.05314C68.4137 0.684379 68.9361 0.5 69.5916 0.5C70.2678 0.5 70.7901 0.674135 71.1589 1.02241C71.5277 1.37068 71.7121 1.86235 71.7121 2.49744C71.7121 3.09154 71.5175 3.57298 71.1281 3.94174C70.7595 4.31049 70.2472 4.49487 69.5916 4.49487ZM82.9383 24.5C81.4427 24.5 80.1009 24.1312 78.9127 23.3938C77.745 22.6562 76.8129 21.6524 76.1162 20.3821C75.4402 19.112 75.1022 17.6882 75.1022 16.1108C75.1022 14.5333 75.4402 13.1095 76.1162 11.8393C76.8129 10.5691 77.745 9.56529 78.9127 8.82778C80.1009 8.09025 81.4427 7.72151 82.9383 7.72151C84.3724 7.72151 85.6733 8.01856 86.841 8.61267C88.0129 9.17841 88.9058 9.95339 89.5196 10.9376C89.535 10.9622 89.5329 10.9939 89.5145 11.0165L88.9371 11.7255C88.3643 12.429 87.2559 12.3881 86.5336 11.8393C86.0215 11.45 85.4786 11.1427 84.905 10.9174C84.3313 10.6921 83.7783 10.5794 83.2456 10.5794C82.2622 10.5794 81.3812 10.8252 80.6029 11.3169C79.8448 11.7881 79.2405 12.4436 78.7897 13.2836C78.3391 14.1235 78.1138 15.0659 78.1138 16.1108C78.1138 17.1556 78.3493 18.0979 78.8205 18.9379C79.2917 19.7573 79.9165 20.4129 80.695 20.9046C81.4735 21.3962 82.3339 21.6421 83.2763 21.6421C83.8294 21.6421 84.3621 21.55 84.8742 21.3656C85.4069 21.1812 85.9191 20.9046 86.4107 20.5359C87.21 19.9364 88.3871 19.9126 89.0179 20.6873L89.5098 21.2914C89.5307 21.317 89.5319 21.3534 89.5125 21.3802C88.8584 22.2817 87.9269 23.0245 86.718 23.6088C85.5094 24.2029 84.2494 24.5 82.9383 24.5Z" fill="#4158D0"/>
</svg>
