<svg width="206" height="54" viewBox="0 0 206 54" fill="none" xmlns="http://www.w3.org/2000/svg">
<path d="M0.24629 53.3085C0.110268 53.3085 0 53.1982 0 53.0622V7.97578C0 6.28209 1.373 4.90909 3.06668 4.90909H20.1479C22.8343 4.90909 25.2614 5.57747 27.4294 6.9142C29.6445 8.20485 31.4119 9.97951 32.7315 12.2381C34.0512 14.4968 34.7109 17.009 34.7109 19.7746C34.7109 22.5403 34.0512 25.0525 32.7315 27.3111C31.4119 29.5698 29.6445 31.3905 27.4294 32.7733C25.2614 34.11 22.8343 34.7784 20.1479 34.7784H8.23275C7.90262 34.7784 7.635 35.046 7.635 35.3761V45.9198C7.635 50.0005 4.32696 53.3085 0.24629 53.3085ZM7.635 24.521C7.635 26.2147 9.008 27.5877 10.7017 27.5877H20.0065C21.279 27.5877 22.4337 27.242 23.4705 26.5506C24.5074 25.813 25.3322 24.8681 25.9448 23.7157C26.6047 22.5173 26.9345 21.2035 26.9345 19.7746C26.9345 18.3457 26.6047 17.055 25.9448 15.9027C25.3322 14.7503 24.5074 13.8284 23.4705 13.137C22.4337 12.4456 21.279 12.0998 20.0065 12.0998H10.7017C9.008 12.0998 7.635 13.4728 7.635 15.1665V24.521ZM59.597 54C55.7795 54 52.3862 53.2164 49.4171 51.649C46.4949 50.0359 44.1856 47.8463 42.4891 45.0807C40.8395 42.3151 40.0147 39.1346 40.0147 35.5392C40.0147 32.6811 40.4858 30.0768 41.4287 27.726C42.3713 25.3751 43.6672 23.347 45.3168 21.6414C47.0136 19.8899 49.0165 18.5531 51.3258 17.6312C53.6821 16.6632 56.2273 16.1792 58.9609 16.1792C61.3644 16.1792 63.6032 16.6402 65.6766 17.5621C67.7504 18.4379 69.5414 19.6594 71.0496 21.2266C72.6046 22.7938 73.7831 24.6607 74.5843 26.8271C75.4327 28.9475 75.8333 31.2753 75.786 33.8106L75.7849 33.8572C75.7463 35.5228 74.3851 36.8528 72.7191 36.8528H47.5235C46.2588 36.8528 45.1471 36.0151 44.7984 34.7994C44.2789 32.9879 45.6389 31.1831 47.5235 31.1831H68.6896C68.9724 31.1831 69.1214 31.5181 68.932 31.7281C68.7317 31.95 68.3633 31.8084 68.3633 31.5094V30.6991C68.2219 29.1779 67.7032 27.8181 66.8078 26.6197C65.9125 25.4212 64.7813 24.4763 63.4145 23.7849C62.0478 23.0934 60.5632 22.7477 58.9609 22.7477C56.4156 22.7477 54.2713 23.2317 52.5276 24.1997C50.7839 25.1216 49.464 26.5044 48.5687 28.3482C47.6734 30.1459 47.2255 32.3815 47.2255 35.055C47.2255 37.5902 47.7675 39.8026 48.8515 41.6926C49.9355 43.5363 51.4672 44.9655 53.4465 45.9794C55.4262 46.9934 57.7119 47.5007 60.304 47.5007C62.1419 47.5007 63.8387 47.201 65.3938 46.6016C68.467 45.4529 72.2035 45.6162 74.135 48.2682C74.1899 48.3436 74.1813 48.4479 74.1139 48.5123C73.0045 49.5718 71.653 50.5019 70.0597 51.3034C68.4574 52.1332 66.7373 52.8015 64.8991 53.3085C63.1081 53.7696 61.3408 54 59.597 54ZM88.5294 53.3085C88.3997 53.3085 88.2945 53.2034 88.2945 53.0736V14.7904C88.2945 10.8987 91.4493 7.74392 95.341 7.74392C95.4707 7.74392 95.5759 7.84908 95.5759 7.9788V46.262C95.5759 50.1537 92.4211 53.3085 88.5294 53.3085ZM87.2801 23.9231C83.5847 23.9231 80.589 20.9274 80.589 17.232C80.589 17.1088 80.6888 17.009 80.812 17.009H97.5096C101.205 17.009 104.201 20.0047 104.201 23.7001C104.201 23.8233 104.101 23.9231 103.978 23.9231H87.2801ZM130.343 54C128.74 54 127.138 53.7465 125.536 53.2395C123.98 52.7322 122.543 52.0638 121.223 51.2344C119.951 50.3584 118.867 49.4134 117.971 48.3995C117.294 47.5535 116.797 46.7076 116.481 45.8616C116.342 45.4917 116.522 45.0884 116.872 44.9043L117.703 44.4667C117.889 44.3687 118.113 44.5037 118.113 44.7141V46.0544C118.113 49.9463 114.958 53.1012 111.066 53.1012C110.936 53.1012 110.831 52.9961 110.831 52.8663V3.96383C110.831 2.95844 111.646 2.1434 112.652 2.1434C115.668 2.1434 118.113 4.5885 118.113 7.60468V24.4114C118.113 24.8137 117.681 25.0687 117.329 24.8748C117.123 24.7616 117.014 24.5254 117.08 24.2997C117.347 23.378 117.833 22.492 118.537 21.6414C119.338 20.6274 120.351 19.7285 121.577 18.9449C122.849 18.1152 124.216 17.4699 125.677 17.009C127.138 16.5019 128.622 16.2484 130.131 16.2484C133.477 16.2484 136.446 17.055 139.038 18.6684C141.63 20.2817 143.681 22.5173 145.189 25.3751C146.697 28.1869 147.451 31.4135 147.451 35.055C147.451 38.6966 146.697 41.946 145.189 44.8041C143.727 47.6618 141.701 49.9204 139.109 51.58C136.517 53.1933 133.595 54 130.343 54ZM129.141 47.5007C131.309 47.5007 133.241 46.9706 134.938 45.9105C136.634 44.8041 137.978 43.329 138.967 41.4853C139.957 39.5953 140.452 37.4519 140.452 35.055C140.452 32.7042 139.957 30.6069 138.967 28.7631C138.025 26.8732 136.705 25.3982 135.008 24.338C133.312 23.2778 131.356 22.7477 129.141 22.7477C126.926 22.7477 124.97 23.2778 123.273 24.338C121.577 25.3982 120.233 26.8732 119.244 28.7631C118.254 30.6069 117.759 32.7042 117.759 35.055C117.759 37.4519 118.254 39.5953 119.244 41.4853C120.233 43.329 121.577 44.8041 123.273 45.9105C124.97 46.9706 126.926 47.5007 129.141 47.5007ZM156.797 53.3085C156.667 53.3085 156.562 53.2034 156.562 53.0736V24.0558C156.562 20.1639 159.717 17.009 163.609 17.009C163.739 17.009 163.844 17.1141 163.844 17.2439V46.2617C163.844 50.1535 160.689 53.3085 156.797 53.3085ZM160.097 8.98846C158.542 8.98846 157.34 8.59667 156.491 7.81307C155.643 7.02943 155.219 5.92318 155.219 4.49423C155.219 3.15747 155.643 2.07426 156.491 1.24456C157.387 0.414853 158.589 0 160.097 0C161.652 0 162.854 0.391805 163.702 1.17542C164.551 1.95902 164.975 3.0653 164.975 4.49423C164.975 5.83096 164.527 6.9142 163.631 7.74392C162.783 8.5736 161.605 8.98846 160.097 8.98846ZM190.801 54C187.36 54 184.273 53.1702 181.54 51.511C178.854 49.8514 176.709 47.5928 175.107 44.7348C173.551 41.8771 172.774 38.6735 172.774 35.1243C172.774 31.5749 173.551 28.3713 175.107 25.5134C176.709 22.6555 178.854 20.3969 181.54 18.7375C184.273 17.0781 187.36 16.2484 190.801 16.2484C194.1 16.2484 197.093 16.9168 199.779 18.2535C202.473 19.5256 204.527 21.2678 205.939 23.4802C205.975 23.5381 205.97 23.6131 205.926 23.6658L204.607 25.2512C203.275 26.851 200.743 26.7551 199.072 25.5134C197.894 24.6376 196.645 23.9462 195.325 23.4391C194.005 22.9321 192.733 22.6786 191.508 22.6786C189.245 22.6786 187.219 23.2317 185.428 24.338C183.684 25.3982 182.294 26.8732 181.257 28.7631C180.22 30.653 179.702 32.7733 179.702 35.1243C179.702 37.475 180.244 39.5953 181.328 41.4853C182.412 43.329 183.849 44.8041 185.64 45.9105C187.431 47.0165 189.41 47.5697 191.578 47.5697C192.851 47.5697 194.076 47.3624 195.254 46.9475C196.48 46.5326 197.658 45.9105 198.789 45.0807C200.638 43.7247 203.327 43.6681 204.794 45.43L205.915 46.7763C205.965 46.8362 205.968 46.9224 205.922 46.985C204.417 49.0113 202.275 50.6811 199.496 51.9949C196.716 53.3316 193.817 54 190.801 54Z" fill="white"/>
</svg>
